<svg xmlns="http://www.w3.org/2000/svg" viewBox="0 0 512 512">
  <!-- Background circle with coral color -->
  <circle cx="256" cy="256" r="256" fill="#d97757"/>

  <!-- Pudding emoji rendered as vector -->
  <!-- Plate -->
  <ellipse cx="256" cy="380" rx="140" ry="30" fill="#f5e6d3"/>
  <ellipse cx="256" cy="375" rx="130" ry="25" fill="#fff"/>

  <!-- Pudding body -->
  <path d="M140 280 Q140 370 256 370 Q372 370 372 280 L372 220 Q372 180 256 180 Q140 180 140 220 Z" fill="#f4a460"/>

  <!-- Pudding top curve -->
  <ellipse cx="256" cy="180" rx="116" ry="35" fill="#daa520"/>

  <!-- Caramel drip -->
  <path d="M180 180 Q175 220 185 240 Q195 260 200 240 Q205 220 195 190" fill="#8b4513"/>
  <path d="M280 175 Q275 210 290 230 Q305 250 310 225 Q315 200 295 175" fill="#8b4513"/>
  <path d="M340 185 Q335 205 345 220 Q355 235 360 215 Q365 195 350 180" fill="#8b4513"/>

  <!-- Shine highlight -->
  <ellipse cx="200" cy="240" rx="25" ry="40" fill="rgba(255,255,255,0.3)"/>
</svg>
